<svg width="35" height="34" viewBox="0 0 35 34" fill="none" xmlns="http://www.w3.org/2000/svg">
<path d="M15.5356 0.121375C7.46923 0.998168 0.98108 7.48644 0.104304 15.3776C-0.772472 23.6194 3.96212 30.9845 11.1517 33.7902C11.6778 33.9656 12.2038 33.6149 12.2038 32.9135V30.1077C12.2038 30.1077 11.5024 30.2831 10.6256 30.2831C8.17065 30.2831 7.11851 28.1788 6.94316 26.9513C6.7678 26.2498 6.41709 25.7237 5.89103 25.1977C5.36496 25.0223 5.18961 25.0223 5.18961 24.847C5.18961 24.4962 5.71567 24.4962 5.89103 24.4962C6.94316 24.4962 7.81994 25.7237 8.17065 26.2498C9.04742 27.6527 10.0996 28.0034 10.6256 28.0034C11.327 28.0034 11.8531 27.828 12.2038 27.6527C12.3792 26.4252 12.9052 25.1977 13.9574 24.4962C9.9242 23.6194 6.94316 21.3398 6.94316 17.4819C6.94316 15.5529 7.81994 13.624 9.04742 12.2211C8.87207 11.8704 8.69671 10.9936 8.69671 9.7661C8.69671 9.06467 8.69671 8.01252 9.22278 6.96036C9.22278 6.96036 11.6778 6.96036 14.1327 9.24003C15.0095 8.88931 16.237 8.71395 17.4645 8.71395C18.692 8.71395 19.9194 8.88931 20.9716 9.24003C23.2512 6.96036 25.8815 6.96036 25.8815 6.96036C26.2322 8.01252 26.2322 9.06467 26.2322 9.7661C26.2322 11.169 26.0569 11.8704 25.8815 12.2211C27.109 13.624 27.9858 15.3776 27.9858 17.4819C27.9858 21.3398 25.0048 23.6194 20.9716 24.4962C22.0237 25.373 22.7251 26.9513 22.7251 28.5295V33.0888C22.7251 33.6149 23.2512 34.141 23.9526 33.9656C30.4408 31.3352 35 25.0223 35 17.6572C35 7.13572 26.0569 -1.10614 15.5356 0.121375Z" fill="#DFDFDF"/>
</svg>
