<svg width="32" height="31" viewBox="0 0 32 31" fill="none" xmlns="http://www.w3.org/2000/svg">
<path d="M3.55556 0C1.6 0 0 1.55 0 3.44444V27.5556C0 29.45 1.6 31 3.55556 31H28.4444C30.4 31 32 29.45 32 27.5556V3.44444C32 1.55 30.4 0 28.4444 0H3.55556ZM3.55556 3.44444H28.4444V27.5556H3.55556V3.44444ZM8.53472 5.68468C6.93472 5.68468 6.04514 6.54444 6.04514 7.75C6.04514 8.95556 6.93194 9.81532 8.35417 9.81532C9.95417 9.81532 10.8438 8.95556 10.8438 7.75C10.8438 6.54444 9.95694 5.68468 8.53472 5.68468ZM6.22222 12.0556V24.1111H10.6667V12.0556H6.22222ZM14.3993 12.0556V24.1111H18.8438V17.5653C18.8438 15.6709 20.4431 15.3285 20.7986 15.3285C21.1542 15.3285 22.3993 15.6709 22.3993 17.5653V24.1111H26.6667V17.5653C26.6667 13.7764 24.8903 12.0556 22.7569 12.0556C20.6236 12.0556 19.3771 12.7444 18.8438 13.7778V12.0556H14.3993Z" fill="#DFDFDF"/>
</svg>
