<svg width="35" height="35" viewBox="0 0 35 35" fill="none" xmlns="http://www.w3.org/2000/svg">
<path d="M17.5222 0C7.88578 0 0.0411017 7.83716 0.0376013 17.4727C0.0358512 20.5527 0.842652 23.5595 2.3723 26.209L0 35L9.15763 32.8364C11.7111 34.2294 14.5857 34.9607 17.512 34.9624H17.5188C27.1535 34.9624 34.9947 27.1235 35 17.4897C35.0035 12.819 33.187 8.42754 29.8862 5.12354C26.5854 1.82129 22.1987 0.00175 17.5222 0ZM17.5188 3.5C21.2572 3.50175 24.7704 4.95914 27.4114 7.59814C30.0524 10.2406 31.5032 13.7518 31.4997 17.4863C31.4962 25.1933 25.2266 31.4624 17.5154 31.4624C15.1824 31.4607 12.8715 30.8749 10.836 29.7637L9.6567 29.1211L8.35433 29.4287L4.90868 30.2422L5.74958 27.1182L6.12902 25.7168L5.40434 24.459C4.18272 22.345 3.53619 19.9279 3.53794 17.4727C3.54144 9.76916 9.8128 3.5 17.5188 3.5ZM11.3351 9.40625C11.0428 9.40625 10.5702 9.51562 10.1694 9.95312C9.76866 10.3889 8.63805 11.4443 8.63805 13.5933C8.63805 15.7423 10.2036 17.8196 10.4224 18.1118C10.6394 18.4023 13.4444 22.9517 17.8846 24.7017C21.5739 26.1559 22.3232 25.8689 23.1248 25.7954C23.9264 25.7237 25.7108 24.741 26.0748 23.7207C26.4388 22.7005 26.4397 21.8228 26.3312 21.6426C26.2227 21.4606 25.9312 21.3521 25.4937 21.1333C25.0579 20.9146 22.9103 19.8601 22.5095 19.7148C22.1087 19.5696 21.8156 19.4961 21.525 19.9336C21.2345 20.3711 20.3996 21.3521 20.1441 21.6426C19.8885 21.9348 19.6347 21.9741 19.1972 21.7554C18.7596 21.5349 17.3528 21.0725 15.6832 19.585C14.3845 18.4282 13.5083 17.001 13.2528 16.5635C12.999 16.1277 13.2288 15.8884 13.4476 15.6714C13.6436 15.4754 13.8817 15.1613 14.1005 14.9058C14.3175 14.6503 14.3928 14.4682 14.538 14.1777C14.6833 13.8872 14.6089 13.6309 14.5004 13.4121C14.3919 13.1934 13.5422 11.0364 13.1536 10.1719C12.8263 9.44563 12.4807 9.42875 12.1692 9.4165C11.9154 9.406 11.6256 9.40625 11.3351 9.40625Z" fill="#DFDFDF"/>
</svg>
